<?xml version="1.0" encoding="UTF-8" standalone="no"?>
<!-- Created with Inkscape (http://www.inkscape.org/) -->

<svg
   xmlns:dc="http://purl.org/dc/elements/1.1/"
   xmlns:cc="http://creativecommons.org/ns#"
   xmlns:rdf="http://www.w3.org/1999/02/22-rdf-syntax-ns#"
   xmlns:svg="http://www.w3.org/2000/svg"
   xmlns="http://www.w3.org/2000/svg"
   xmlns:sodipodi="http://sodipodi.sourceforge.net/DTD/sodipodi-0.dtd"
   xmlns:inkscape="http://www.inkscape.org/namespaces/inkscape"
   width="130mm"
   height="130mm"
   viewBox="0 0 130 130"
   version="1.1"
   id="svg8"
   inkscape:version="0.92.2 (5c3e80d, 2017-08-06)"
   sodipodi:docname="cm-v.svg"
   inkscape:export-filename="/home/kobi/cm-v-128.png"
   inkscape:export-xdpi="25.200003"
   inkscape:export-ydpi="25.200003">
  <defs
     id="defs2">
    <inkscape:perspective
       sodipodi:type="inkscape:persp3d"
       inkscape:vp_x="0 : 148.49999 : 1"
       inkscape:vp_y="0 : 999.99996 : 0"
       inkscape:vp_z="210 : 148.49999 : 1"
       inkscape:persp3d-origin="105 : 98.999996 : 1"
       id="perspective4758" />
    <inkscape:perspective
       sodipodi:type="inkscape:persp3d"
       inkscape:vp_x="96.307522 : 123.91613 : 1"
       inkscape:vp_y="0 : 264.58332 : 0"
       inkscape:vp_z="151.87002 : 123.91613 : 1"
       inkscape:persp3d-origin="124.08877 : 110.81927 : 1"
       id="perspective4758-8" />
  </defs>
  <sodipodi:namedview
     id="base"
     pagecolor="#ffffff"
     bordercolor="#666666"
     borderopacity="1.0"
     inkscape:pageopacity="0.0"
     inkscape:pageshadow="2"
     inkscape:zoom="0.7"
     inkscape:cx="-229.62905"
     inkscape:cy="173.14216"
     inkscape:document-units="mm"
     inkscape:current-layer="layer1"
     showgrid="false"
     inkscape:window-width="1920"
     inkscape:window-height="1016"
     inkscape:window-x="0"
     inkscape:window-y="27"
     inkscape:window-maximized="1" />
  <metadata
     id="metadata5">
    <rdf:RDF>
      <cc:Work
         rdf:about="">
        <dc:format>image/svg+xml</dc:format>
        <dc:type
           rdf:resource="http://purl.org/dc/dcmitype/StillImage" />
        <dc:title></dc:title>
      </cc:Work>
    </rdf:RDF>
  </metadata>
  <g
     inkscape:label="Layer 1"
     inkscape:groupmode="layer"
     id="layer1"
     transform="translate(-15.439861,59.207486)">
    <g
       transform="matrix(3.8813369,0,0,3.6212522,-299.37569,-173.87261)"
       aria-label="O"
       style="font-style:normal;font-variant:normal;font-weight:normal;font-stretch:normal;font-size:25.39999962px;line-height:1.25;font-family:Cantarell;-inkscape-font-specification:Cantarell;letter-spacing:0px;word-spacing:0px;fill:#5a5b5d;fill-opacity:0.30196078;stroke:none;stroke-width:0.565;stroke-miterlimit:4;stroke-dasharray:none;stroke-opacity:1"
       id="text4506-9-2-7-76">
      <path
         style="font-style:normal;font-variant:normal;font-weight:normal;font-stretch:normal;font-size:25.39999962px;font-family:'Noto Sans Mandaic';-inkscape-font-specification:'Noto Sans Mandaic';fill:#5a5b5d;fill-opacity:0.30196078;stroke:none;stroke-width:4.10235071;stroke-miterlimit:4;stroke-dasharray:none;stroke-opacity:1"
         d="m 59.572266,425.68164 c -19.372791,0 -34.870465,6.18382 -46.494141,18.54883 -11.5621712,12.30641 -17.34375,28.83108 -17.34375,49.57617 0,15.90822 3.41378169,29.32562 10.2128906,40.27148 -0.2954515,-0.003 -0.5835714,-0.0176 -0.8808594,-0.0176 -3.6323983,0 -7.1283447,0.21767 -10.4882812,0.65234 -2.239306,0.2897 -4.4188216,0.67543 -6.537109,1.1582 -4.238425,0.96598 -8.234326,2.31959 -11.988282,4.0586 -3.753409,1.73875 -7.264087,3.8634 -10.533203,6.375 -1.634558,1.25579 -3.209165,2.60762 -4.722656,4.05664 -0.756746,0.72451 -1.49813,1.47328 -2.224609,2.24609 -11.562172,12.30641 -17.34375,28.83304 -17.34375,49.57813 0,12.96567 2.258773,24.28216 6.77539,33.95117 2.51e-4,5.4e-4 -2.51e-4,10e-4 0,0.002 0.451439,0.96635 0.925322,1.91618 1.421875,2.84961 2.73e-4,5.1e-4 -2.72e-4,10e-4 0,0.002 0.496583,0.93342 1.016897,1.84951 1.558594,2.75 2.91e-4,4.9e-4 -2.91e-4,10e-4 0,0.002 1.625752,2.70241 3.456212,5.25621 5.488281,7.66211 3.29e-4,3.9e-4 -3.28e-4,0.002 0,0.002 0.677183,0.80172 1.377308,1.58667 2.09961,2.35547 0.726479,0.76915 1.467863,1.51524 2.224609,2.23633 1.513499,1.44215 3.088077,2.78724 4.722656,4.03711 1.634558,1.24992 3.328355,2.40328 5.083985,3.46093 7.7e-4,4.7e-4 0.0012,10e-4 0.002,0.002 5.266285,3.17225 11.077902,5.47971 17.433593,6.92187 6.21e-4,1.4e-4 0.0013,-1.4e-4 0.002,0 3.1777392,0.72096 6.49132,1.22524 9.9414059,1.51367 6.523e-4,6e-5 0.0013,-5e-5 0.00195,0 1.14962852,0.0961 2.31427226,0.16875 3.4941406,0.2168 1.1811696,0.0481 2.3764174,0.0723 3.5878906,0.0723 12.0695569,0 22.6253089,-2.40336 31.6679689,-7.21094 1.808511,-0.96144 3.556709,-2.0201 5.244141,-3.17383 0.843724,-0.57689 1.672875,-1.17777 2.486328,-1.80273 1.626891,-1.24987 3.193407,-2.59496 4.699218,-4.03711 0.752909,-0.72109 1.490255,-1.46718 2.212891,-2.23633 0.755448,-0.8079 1.483365,-1.63509 2.189453,-2.47852 0.09726,-0.11647 0.186895,-0.2383 0.283203,-0.35547 0.621138,-0.75353 1.226401,-1.51726 1.808594,-2.29882 0.0039,-0.005 0.0078,-0.0104 0.01172,-0.0156 0.01862,-0.0251 0.03611,-0.051 0.05469,-0.0762 0.645372,-0.86984 1.264061,-1.7596 1.861329,-2.66406 0.614731,-0.93091 1.201852,-1.88203 1.765624,-2.84961 2.259255,3.87621 4.916687,7.46066 7.996094,10.73828 11.623676,12.30641 27.121347,18.46094 46.49414,18.46094 19.31129,0 34.74837,-6.15453 46.31054,-18.46094 11.56218,-12.36501 17.34375,-28.88969 17.34375,-49.57617 0,-20.74509 -5.78157,-37.27172 -17.34375,-49.57813 -11.56217,-12.36501 -26.99925,-18.54687 -46.31054,-18.54687 -0.28622,0 -0.56313,0.0149 -0.84766,0.0176 6.81207,-10.97563 10.23047,-24.39308 10.23047,-40.27148 0,-20.74509 -5.77963,-37.26976 -17.3418,-49.57617 C 94.320644,431.86546 78.883556,425.68164 59.572266,425.68164 Z m 0,14.41602 c 13.530205,0 24.231396,4.80529 32.103515,14.41601 7.933608,9.61072 11.900389,22.70862 11.900389,39.29297 0,16.52574 -3.966781,29.59436 -11.900389,39.20508 -2.451897,2.99341 -5.178893,5.51901 -8.179687,7.58008 -1.861167,0.92258 -3.660132,1.94386 -5.398438,3.0625 -5.437502,2.51084 -11.609687,3.77343 -18.52539,3.77343 -7.44845,0 -14.053213,-1.46435 -19.824219,-4.37695 -0.0018,-9.2e-4 -0.004,-10e-4 -0.0059,-0.002 -0.346578,-0.2142 -0.699401,-0.41847 -1.050782,-0.625 -0.427893,-0.25212 -0.859881,-0.49759 -1.294922,-0.73828 -0.307859,-0.16994 -0.612401,-0.34552 -0.923828,-0.50977 -0.0013,-6.8e-4 -0.0026,-0.001 -0.0039,-0.002 -3.382958,-2.16307 -6.450386,-4.87425 -9.185547,-8.16211 -7.933618,-9.61072 -11.900391,-22.67934 -11.900391,-39.20508 0,-16.58435 3.966773,-29.68225 11.900391,-39.29297 7.995122,-9.61072 18.758862,-14.41601 32.289063,-14.41601 z M 5.0664062,548.47656 c 0.8771394,0 1.7406017,0.0218 2.59375,0.0625 0.2023772,0.01 0.3985696,0.0292 0.5996094,0.041 0.6637025,0.0395 1.3255807,0.0841 1.9746094,0.14844 0.179779,0.0177 0.354542,0.0449 0.533203,0.0644 0.644779,0.0712 1.285866,0.14806 1.916016,0.24414 0.196741,0.0298 0.388662,0.0674 0.583984,0.0996 0.63528,0.10543 1.266486,0.21667 1.886719,0.34766 0.128023,0.0269 0.253476,0.058 0.380859,0.0859 0.664232,0.14666 1.321908,0.30427 1.96875,0.48047 0.111308,0.0302 0.221239,0.0627 0.332032,0.0937 0.677343,0.1907 1.347712,0.39583 2.005859,0.61914 0.05569,0.0188 0.110461,0.0395 0.166015,0.0586 0.710691,0.24472 1.411358,0.50621 2.09961,0.78906 0.0051,0.002 0.01051,0.004 0.01563,0.006 0.0059,0.002 0.01165,0.005 0.01758,0.008 0.713933,0.29419 1.415645,0.6082 2.105469,0.94336 0.0044,0.002 0.0092,0.004 0.01367,0.006 0.0013,6.4e-4 0.0026,10e-4 0.0039,0.002 1.353863,0.84937 2.742401,1.64456 4.169922,2.37695 0.390587,0.25803 0.776525,0.52569 1.158203,0.79883 0.01146,0.008 0.0237,0.0152 0.03516,0.0234 0.02714,0.0195 0.05298,0.041 0.08008,0.0606 0.656574,0.47364 1.297876,0.97124 1.927735,1.49023 0.129454,0.10703 0.260362,0.21134 0.388672,0.32031 0.272495,0.23062 0.541233,0.4677 0.808593,0.70704 0.276365,0.2483 0.549466,0.50208 0.820313,0.75976 0.240625,0.22813 0.480539,0.45781 0.716797,0.69336 0.355696,0.35575 0.706909,0.71928 1.052734,1.0918 0.153428,0.16488 0.305571,0.33177 0.457031,0.5 0.437313,0.48662 0.869895,0.98001 1.291016,1.49414 4.462654,5.40603 7.670635,11.91481 9.623047,19.52734 1.518537,5.92094 2.277343,12.50997 2.277343,19.76563 0,11.36144 -1.875137,21.08851 -5.625,29.18164 -1.704486,3.67864 -3.796138,7.02008 -6.27539,10.02343 -0.984015,1.20134 -2.011561,2.32774 -3.083984,3.37891 -2.144847,2.10234 -4.466366,3.90458 -6.964844,5.40625 -1.249238,0.75084 -2.543214,1.42668 -3.88086,2.02734 -0.668822,0.30034 -1.348138,0.58096 -2.039062,0.84376 -1.381851,0.52558 -2.809039,0.97614 -4.279297,1.35156 -2.940513,0.75083 -6.057419,1.20139 -9.3515625,1.35156 -0.8235362,0.0375 -1.6582684,0.0566 -2.5039063,0.0566 -0.8456375,0 -1.6798965,-0.0191 -2.5039062,-0.0566 -3.29606466,-0.15017 -6.4190184,-0.60073 -9.3691406,-1.35156 -2.2125211,-0.56313 -4.3277864,-1.29432 -6.3457034,-2.19532 -1.345332,-0.60066 -2.647403,-1.2765 -3.90625,-2.02734 -3.776387,-2.2525 -7.163938,-5.18114 -10.162109,-8.78516 -0.496189,-0.60107 -0.976251,-1.21561 -1.441406,-1.84374 -0.464861,-0.62769 -0.913787,-1.26719 -1.347657,-1.92188 -0.868053,-1.30987 -1.673969,-2.67379 -2.417968,-4.0918 -0.371889,-0.70871 -0.727462,-1.43028 -1.06836,-2.16601 -3.749863,-8.09313 -5.625,-17.8202 -5.625,-29.18164 0,-1.03653 0.01588,-2.05908 0.04687,-3.06836 0.154975,-5.04715 0.696993,-9.75317 1.626953,-14.11914 0.185945,-0.87308 0.386581,-1.73229 0.603516,-2.57813 1.952404,-7.61263 5.160387,-14.12131 9.623047,-19.52734 5.996341,-7.20804 13.548626,-11.71363 22.658203,-13.51563 1.5183039,-0.30033 3.0807573,-0.52561 4.68554688,-0.67578 1.60476552,-0.15016 3.25208422,-0.22461 4.94335932,-0.22461 z m 108.7753938,0 c 13.5302,0 24.23139,4.8053 32.10351,14.41602 7.93361,9.61072 11.90039,22.70861 11.90039,39.29297 0,16.52574 -3.96678,29.59436 -11.90039,39.20507 -7.87212,9.61072 -18.57331,14.41602 -32.10351,14.41602 -13.5302,0 -24.291991,-4.8053 -32.287112,-14.41602 -7.933619,-9.61071 -11.900391,-22.67933 -11.900391,-39.20507 0,-16.58436 3.966772,-29.68225 11.900391,-39.29297 2.464644,-2.96268 5.194905,-5.46429 8.185546,-7.51367 1.89128,-0.93375 3.718865,-1.96889 5.482422,-3.10547 5.481224,-2.52534 11.683504,-3.79688 18.619144,-3.79688 z m -55.392581,13.34375 c 0.376032,0.005 0.744048,0.0234 1.123047,0.0234 0.235323,0 0.463092,-0.0118 0.697265,-0.0137 -0.308715,0.49515 -0.61148,0.99467 -0.90625,1.5 -0.0065,-0.0111 -0.01304,-0.0221 -0.01953,-0.0332 -0.289217,-0.4951 -0.58801,-0.98344 -0.890625,-1.46876 -0.0015,-0.002 -0.0024,-0.005 -0.0039,-0.008 z"
         transform="matrix(0.13444072,0,0,0.14109138,89.879238,-27.596164)"
         id="path4508-2-3-2-5"
         inkscape:connector-curvature="0" />
    </g>
    <g
       transform="matrix(1.5257758,0,0,1.4287712,-7.4731156,-20.904368)"
       aria-label="O"
       style="font-style:normal;font-variant:normal;font-weight:normal;font-stretch:normal;font-size:25.39999962px;line-height:1.25;font-family:Cantarell;-inkscape-font-specification:Cantarell;letter-spacing:0px;word-spacing:0px;fill:#000000;fill-opacity:1;stroke:none;stroke-width:0.565;stroke-miterlimit:4;stroke-dasharray:none;stroke-opacity:1"
       id="text4506-9-6" />
    <g
       id="g1060"
       style="fill:#cf0000;fill-opacity:1;stroke:none"
       transform="matrix(1.9621582,0,0,1.9156371,-23.007561,-70.824391)">
      <g
         id="text4506-9-2-7"
         style="font-style:normal;font-variant:normal;font-weight:normal;font-stretch:normal;font-size:25.39999962px;line-height:1.25;font-family:Cantarell;-inkscape-font-specification:Cantarell;letter-spacing:0px;word-spacing:0px;fill:#cf0000;fill-opacity:1;stroke:none;stroke-width:0.565;stroke-miterlimit:4;stroke-dasharray:none;stroke-opacity:1"
         aria-label="O"
         transform="matrix(1.9680297,0,0,1.8752622,-139.98753,-53.228641)">
        <path
           inkscape:connector-curvature="0"
           id="path4508-2-3-2"
           transform="matrix(0.13444072,0,0,0.14109138,71.249601,28.077024)"
           d="m 198.14258,31.091797 c -19.37279,0 -34.87047,6.183816 -46.49414,18.548828 -11.56217,12.306407 -17.34375,28.831082 -17.34375,49.576172 0,20.745083 5.78158,37.271713 17.34375,49.578123 11.62367,12.30641 27.12135,18.45899 46.49414,18.45899 19.31129,0 34.74837,-6.15258 46.31054,-18.45899 8.51826,-9.10973 13.88831,-20.48682 16.13086,-34.11328 a 37.954859,15.738804 0 0 1 -8.96484,0.46289 37.954859,15.738804 0 0 1 -10.78711,-0.6582 c -1.75707,9.52264 -5.27912,17.5069 -10.58594,23.93555 -7.87212,9.61071 -18.57331,14.41601 -32.10351,14.41601 -13.5302,0 -24.29199,-4.8053 -32.28711,-14.41601 -7.93362,-9.61073 -11.90039,-22.67934 -11.90039,-39.205083 0,-16.584354 3.96677,-29.682252 11.90039,-39.292969 7.99512,-9.610717 18.75691,-14.416016 32.28711,-14.416016 13.5302,0 24.23139,4.805299 32.10351,14.416016 5.38445,6.522675 8.93593,14.657728 10.66602,24.392578 a 37.954859,15.738804 0 0 1 10.70703,-0.65039 37.954859,15.738804 0 0 1 9.03906,0.472656 C 258.45808,70.302536 253.05959,58.801073 244.45312,49.640625 232.89095,37.275613 217.45387,31.091797 198.14258,31.091797 Z"
           style="font-style:normal;font-variant:normal;font-weight:normal;font-stretch:normal;font-size:25.39999962px;font-family:'Noto Sans Mandaic';-inkscape-font-specification:'Noto Sans Mandaic';fill:#cf0000;fill-opacity:1;stroke:none;stroke-width:4.10235071;stroke-miterlimit:4;stroke-dasharray:none;stroke-opacity:1" />
      </g>
      <g
         id="text4506-9"
         style="font-style:normal;font-variant:normal;font-weight:normal;font-stretch:normal;font-size:25.39999962px;line-height:1.25;font-family:Cantarell;-inkscape-font-specification:Cantarell;letter-spacing:0px;word-spacing:0px;fill:#cf0000;fill-opacity:1;stroke:none;stroke-width:0.565;stroke-miterlimit:4;stroke-dasharray:none;stroke-opacity:1"
         aria-label="O"
         transform="matrix(1.9680297,0,0,1.8752622,-154.64249,-24.07688)">
        <path
           inkscape:connector-curvature="0"
           id="path4508-2"
           transform="matrix(0.13444072,0,0,0.14109138,78.577315,12.785746)"
           d="m 143.63867,139.4707 c -19.37279,0 -34.87046,6.18382 -46.494139,18.54883 -11.562171,12.30641 -17.34375,28.83108 -17.34375,49.57617 0,20.74509 5.781579,37.27172 17.34375,49.57813 9.962719,10.54789 22.780089,16.55917 38.435549,18.0664 a 64.312392,43.532867 0 0 1 -0.83985,-6.86132 64.312392,43.532867 0 0 1 1.08204,-7.75391 c -9.92222,-1.54329 -18.08431,-6.14496 -24.47266,-13.82422 -7.93362,-9.61072 -11.900391,-22.67933 -11.900391,-39.20508 0,-16.58435 3.966771,-29.68225 11.900391,-39.29297 7.99512,-9.61071 18.75886,-14.41601 32.28906,-14.41601 13.53021,0 24.2314,4.8053 32.10352,14.41601 7.93361,9.61072 11.90039,22.70862 11.90039,39.29297 0,6.64646 -0.65225,12.72404 -1.93555,18.25196 a 64.312392,43.532867 0 0 1 13.3457,-1.00196 64.312392,43.532867 0 0 1 6.66602,0.24414 c 1.04162,-5.45931 1.57227,-11.28515 1.57227,-17.49414 0,-20.74509 -5.77963,-37.26976 -17.3418,-49.57617 -11.56217,-12.36501 -26.99926,-18.54883 -46.31055,-18.54883 z"
           style="font-style:normal;font-variant:normal;font-weight:normal;font-stretch:normal;font-size:25.39999962px;font-family:'Noto Sans Mandaic';-inkscape-font-specification:'Noto Sans Mandaic';fill:#cf0000;fill-opacity:1;stroke:none;stroke-width:4.10235071;stroke-miterlimit:4;stroke-dasharray:none;stroke-opacity:1" />
      </g>
      <g
         id="text4506-9-9"
         style="font-style:normal;font-variant:normal;font-weight:normal;font-stretch:normal;font-size:25.39999962px;line-height:1.25;font-family:Cantarell;-inkscape-font-specification:Cantarell;letter-spacing:0px;word-spacing:0px;fill:#cf0000;fill-opacity:1;stroke:none;stroke-width:0.565;stroke-miterlimit:4;stroke-dasharray:none;stroke-opacity:1"
         aria-label="O"
         transform="matrix(-1.9680297,0,0,1.8752622,260.09711,-24.088399)">
        <path
           id="path4508-2-7"
           transform="matrix(0.13444072,0,0,0.14109138,78.577315,12.785746)"
           d="m 143.63867,139.4707 c -19.37279,0 -34.87046,6.18382 -46.494139,18.54883 -11.562171,12.30641 -17.34375,28.83108 -17.34375,49.57617 0,20.74509 5.781579,37.27172 17.34375,49.57813 9.962719,10.54789 22.780089,16.55917 38.435549,18.0664 a 64.312392,43.532867 0 0 1 -0.83985,-6.86132 64.312392,43.532867 0 0 1 1.08204,-7.75391 c -9.92222,-1.54329 -18.08431,-6.14496 -24.47266,-13.82422 -7.93362,-9.61072 -11.900391,-22.67933 -11.900391,-39.20508 0,-16.58435 3.966771,-29.68225 11.900391,-39.29297 7.99512,-9.61071 18.75886,-14.41601 32.28906,-14.41601 13.53021,0 24.2314,4.8053 32.10352,14.41601 7.93361,9.61072 11.90039,22.70862 11.90039,39.29297 0,6.64646 -0.65225,12.72404 -1.93555,18.25196 a 64.312392,43.532867 0 0 1 13.3457,-1.00196 64.312392,43.532867 0 0 1 6.66602,0.24414 c 1.04162,-5.45931 1.57227,-11.28515 1.57227,-17.49414 0,-20.74509 -5.77963,-37.26976 -17.3418,-49.57617 -11.56217,-12.36501 -26.99926,-18.54883 -46.31055,-18.54883 z"
           style="font-style:normal;font-variant:normal;font-weight:normal;font-stretch:normal;font-size:25.39999962px;font-family:'Noto Sans Mandaic';-inkscape-font-specification:'Noto Sans Mandaic';fill:#cf0000;fill-opacity:1;stroke:none;stroke-width:4.10235071;stroke-miterlimit:4;stroke-dasharray:none;stroke-opacity:1"
           inkscape:connector-curvature="0" />
      </g>
    </g>
    <g
       aria-label="O"
       style="font-style:normal;font-variant:normal;font-weight:normal;font-stretch:normal;font-size:25.39999962px;line-height:1.25;font-family:Cantarell;-inkscape-font-specification:Cantarell;letter-spacing:0px;word-spacing:0px;fill:#8e8a90;fill-opacity:0.285124;stroke:none;stroke-width:0.26458332"
       id="text4506-7-7-9"
       transform="matrix(1.9680297,0,0,1.8752622,-191.30617,80.425199)" />
    <g
       transform="matrix(1.9680297,0,0,1.8752622,-191.30617,80.425199)"
       aria-label="O"
       style="font-style:normal;font-variant:normal;font-weight:normal;font-stretch:normal;font-size:25.39999962px;line-height:1.25;font-family:Cantarell;-inkscape-font-specification:Cantarell;letter-spacing:0px;word-spacing:0px;fill:#8e8a90;fill-opacity:0.285124;stroke:none;stroke-width:0.565;stroke-miterlimit:4;stroke-dasharray:none;stroke-opacity:1"
       id="text4506-9-69" />
    <g
       transform="matrix(1.9680297,0,0,1.8752622,-162.52602,80.425199)"
       aria-label="O"
       style="font-style:normal;font-variant:normal;font-weight:normal;font-stretch:normal;font-size:25.39999962px;line-height:1.25;font-family:Cantarell;-inkscape-font-specification:Cantarell;letter-spacing:0px;word-spacing:0px;fill:#8e8a90;fill-opacity:0.285124;stroke:none;stroke-width:0.565;stroke-miterlimit:4;stroke-dasharray:none;stroke-opacity:1"
       id="text4506-9-2" />
  </g>
</svg>
